<?xml version="1.0" encoding="UTF-8" standalone="no"?>
<!-- Generator: Gravit.io -->

<svg
   style="isolation:isolate"
   viewBox="0 0 1280 633.864"
   width="1280pt"
   height="633.864pt"
   version="1.1"
   id="svg200"
   xml:space="preserve"
   xmlns:xlink="http://www.w3.org/1999/xlink"
   xmlns="http://www.w3.org/2000/svg"
   xmlns:svg="http://www.w3.org/2000/svg"><defs
     id="defs5"><linearGradient
       id="linearGradient73957"><stop
         style="stop-color:#f7ce9a;stop-opacity:1;"
         offset="0"
         id="stop73953" /><stop
         style="stop-color:#601b0c;stop-opacity:1;"
         offset="1"
         id="stop73955" /></linearGradient><radialGradient
       xlink:href="#linearGradient73957"
       id="radialGradient73959"
       cx="135.46666"
       cy="-1.9717104e-06"
       fx="135.46666"
       fy="-1.9717104e-06"
       r="67.73333"
       gradientUnits="userSpaceOnUse"
       gradientTransform="matrix(0.13369664,12.32534,-28.994693,0.07712814,-18.111335,-1669.6726)" /><defs
       id="defs12"><radialGradient
         id="_rgradient_1"
         fx="-3.9103982e-06"
         fy="0.00034533073"
         cx="-3.9103982e-06"
         cy="0.00034533073"
         r="900.74742"
         gradientTransform="scale(1.4210421,0.70370892)"
         gradientUnits="userSpaceOnUse"><stop
           offset="0%"
           style="stop-color:#F7CE9A"
           id="stop7" /><stop
           offset="100%"
           style="stop-color:#601B0C"
           id="stop9" /></radialGradient></defs><clipPath
       clipPathUnits="userSpaceOnUse"
       id="clipPath870"><g
         id="g874"><rect
           width="1280"
           height="633.86401"
           id="rect872"
           x="0"
           y="0" /></g></clipPath><clipPath
       clipPathUnits="userSpaceOnUse"
       id="clipPath876"><g
         id="g880"><rect
           width="1280"
           height="633.86401"
           id="rect878"
           x="0"
           y="0" /></g></clipPath><clipPath
       clipPathUnits="userSpaceOnUse"
       id="clipPath882"><g
         id="g886"><rect
           width="1280"
           height="633.86401"
           id="rect884"
           x="0"
           y="0" /></g></clipPath><clipPath
       clipPathUnits="userSpaceOnUse"
       id="clipPath888"><g
         id="g892"><rect
           width="1280"
           height="633.86401"
           id="rect890"
           x="0"
           y="0" /></g></clipPath><clipPath
       clipPathUnits="userSpaceOnUse"
       id="clipPath894"><g
         id="g898"><rect
           width="1280"
           height="633.86401"
           id="rect896"
           x="0"
           y="0" /></g></clipPath><clipPath
       clipPathUnits="userSpaceOnUse"
       id="clipPath900"><g
         id="g904"><rect
           width="1280"
           height="633.86401"
           id="rect902"
           x="0"
           y="0" /></g></clipPath></defs><rect
     style="fill:url(#radialGradient73959);fill-opacity:1;fill-rule:nonzero;stroke:none;stroke-width:1.75224;stroke-linecap:round;stroke-linejoin:round;stroke-dasharray:none;stroke-opacity:1;paint-order:normal"
     id="rect73571"
     width="1280"
     height="633.86401"
     x="1.1368684e-13"
     y="-1.1368684e-13"
     ry="1.6122941" /><path
     d="m 539.614,425.985 v 0 q -7.068,0 -13.11,-0.228 v 0 0 q -6.042,-0.228 -16.53,-1.026 v 0 -78.546 h 39.216 v 0 q 8.322,0 14.991,2.337 v 0 0 q 6.669,2.337 10.431,6.669 v 0 0 q 3.762,4.332 3.762,10.032 v 0 0 q 0,7.068 -3.078,11.115 v 0 0 q -3.078,4.047 -9.348,5.643 v 0 0 q 15.96,2.508 15.96,18.81 v 0 0 q 0,11.286 -10.317,18.24 v 0 0 q -10.317,6.954 -31.977,6.954 z m -4.218,-48.792 h 9.006 v 0 q 4.446,0 7.353,-2.166 v 0 0 q 2.907,-2.166 2.907,-5.586 v 0 0 q 0,-8.094 -10.032,-8.094 v 0 h -9.234 z m 8.55,30.894 v 0 q 6.27,0 9.633,-2.337 v 0 0 q 3.363,-2.337 3.363,-6.555 v 0 0 q 0,-4.56 -3.078,-7.011 v 0 0 q -3.078,-2.451 -8.778,-2.451 v 0 h -9.804 v 18.012 0 q 5.13,0.342 8.664,0.342 z m 76.494,17.442 v 0 q -9.576,0 -17.043,-3.762 v 0 0 q -7.467,-3.762 -11.628,-10.431 v 0 0 q -4.161,-6.669 -4.161,-15.333 v 0 0 q 0,-8.664 4.218,-15.333 v 0 0 q 4.218,-6.669 11.685,-10.317 v 0 0 q 7.467,-3.648 17.043,-3.648 v 0 0 q 9.69,0 17.157,3.705 v 0 0 q 7.467,3.705 11.571,10.317 v 0 0 q 4.104,6.612 4.104,15.276 v 0 0 q 0,8.778 -4.161,15.447 v 0 0 q -4.161,6.669 -11.628,10.374 v 0 0 q -7.467,3.705 -17.157,3.705 z m 0.228,-17.1 v 0 q 4.674,0 7.695,-3.477 v 0 0 q 3.021,-3.477 3.021,-8.949 v 0 0 q 0,-5.472 -3.021,-8.949 v 0 0 q -3.021,-3.477 -7.695,-3.477 v 0 0 q -4.674,0 -7.695,3.477 v 0 0 q -3.021,3.477 -3.021,8.949 v 0 0 q 0,5.472 3.021,8.949 v 0 0 q 3.021,3.477 7.695,3.477 z m 61.332,17.1 v 0 q -9.576,0 -14.934,-6.156 v 0 0 q -5.358,-6.156 -5.358,-16.758 v 0 -35.112 h 24.168 v 34.086 0 q 0,2.622 1.425,4.047 v 0 0 q 1.425,1.425 3.705,1.425 v 0 0 q 2.28,0 4.674,-1.368 v 0 l 1.254,15.846 v 0 q -2.508,1.938 -6.555,2.964 v 0 0 q -4.047,1.026 -8.379,1.026 z m -8.208,-66.576 v 0 q -5.358,0 -9.063,-3.363 v 0 0 q -3.705,-3.363 -3.705,-8.265 v 0 0 q 0,-4.902 3.876,-8.208 v 0 0 q 3.876,-3.306 8.892,-3.306 v 0 0 q 5.244,0 9.063,3.42 v 0 0 q 3.819,3.42 3.819,8.094 v 0 0 q 0,5.016 -3.876,8.322 v 0 0 q -3.876,3.306 -9.006,3.306 z m 49.818,66.576 v 0 q -9.69,0 -14.991,-6.099 v 0 0 q -5.301,-6.099 -5.301,-16.701 v 0 -53.238 l 24.054,-3.534 v 55.062 0 q 0,3.192 1.539,4.617 v 0 0 q 1.539,1.425 5.415,1.425 v 0 0 q 2.85,0 5.586,-1.368 v 0 l 0.798,15.96 v 0 q -7.638,3.876 -17.1,3.876 z m 52.554,0 v 0 q -9.462,0 -16.815,-3.819 v 0 0 q -7.353,-3.819 -11.457,-10.488 v 0 0 q -4.104,-6.669 -4.104,-15.105 v 0 0 q 0,-8.664 4.218,-15.39 v 0 0 q 4.218,-6.726 11.4,-10.374 v 0 0 q 7.182,-3.648 15.96,-3.648 v 0 0 q 8.436,0 14.421,3.705 v 0 0 q 5.985,3.705 8.949,10.032 v 0 0 q 2.964,6.327 2.964,14.193 v 0 0 q 0,2.052 -0.228,2.964 v 0 l -34.2,4.446 v 0 q 1.368,3.99 4.446,5.757 v 0 0 q 3.078,1.767 8.094,1.767 v 0 0 q 7.752,0 16.758,-3.99 v 0 l 2.85,15.276 v 0 q -10.602,4.674 -23.256,4.674 z m -9.804,-33.972 17.67,-3.876 v 0 q -1.824,-7.182 -8.664,-7.182 v 0 0 q -4.104,0 -6.498,3.078 v 0 0 q -2.394,3.078 -2.508,7.98 z m 43.662,33.06 v -56.316 h 24.054 v 11.628 0 q 2.622,-6.726 7.125,-9.975 v 0 0 q 4.503,-3.249 10.545,-3.249 v 0 l 3.306,18.582 v 0 q -10.83,0 -15.903,2.337 v 0 0 q -5.073,2.337 -5.073,7.353 v 0 29.64 z m 50.844,19.38 v -75.696 h 24.054 v 9.918 0 q 5.472,-11.514 18.582,-11.514 v 0 0 q 7.638,0 14.079,3.819 v 0 0 q 6.441,3.819 10.146,10.545 v 0 0 q 3.705,6.726 3.705,15.048 v 0 0 q 0,8.322 -3.819,15.048 v 0 0 q -3.819,6.726 -10.26,10.545 v 0 0 q -6.441,3.819 -13.737,3.819 v 0 0 q -12.996,0 -18.696,-11.514 v 0 25.422 z m 35.454,-36.48 v 0 q 4.674,0 7.98,-3.42 v 0 0 q 3.306,-3.42 3.306,-7.98 v 0 0 q 0,-4.788 -3.363,-8.094 v 0 0 q -3.363,-3.306 -7.923,-3.306 v 0 0 q -4.674,0 -7.98,3.249 v 0 0 q -3.306,3.249 -3.306,7.695 v 0 0.456 0 q 0,4.788 3.363,8.094 v 0 0 q 3.363,3.306 7.923,3.306 z m 63.84,18.012 v 0 q -9.69,0 -14.991,-6.099 v 0 0 q -5.301,-6.099 -5.301,-16.701 v 0 -53.238 l 24.054,-3.534 v 55.062 0 q 0,3.192 1.539,4.617 v 0 0 q 1.539,1.425 5.415,1.425 v 0 0 q 2.85,0 5.586,-1.368 v 0 l 0.798,15.96 v 0 q -7.638,3.876 -17.1,3.876 z m 48.222,0 v 0 q -7.41,0 -13.851,-3.933 v 0 0 q -6.441,-3.933 -10.317,-10.716 v 0 0 q -3.876,-6.783 -3.876,-15.105 v 0 0 q 0,-8.208 3.876,-14.877 v 0 0 q 3.876,-6.669 10.374,-10.431 v 0 0 q 6.498,-3.762 13.794,-3.762 v 0 0 q 5.928,0 11.001,3.306 v 0 0 q 5.073,3.306 7.695,9.918 v 0 -13.224 h 23.94 v 57.912 h -23.94 v -10.602 0 q -5.7,11.514 -18.696,11.514 z m 7.41,-18.012 v 0 q 4.56,0 7.809,-3.249 v 0 0 q 3.249,-3.249 3.477,-7.695 v 0 -0.912 0 q -0.228,-4.56 -3.591,-7.752 v 0 0 q -3.363,-3.192 -7.695,-3.192 v 0 0 q -4.788,0 -8.151,3.363 v 0 0 q -3.363,3.363 -3.363,8.037 v 0 0 q 0,4.788 3.42,8.094 v 0 0 q 3.42,3.306 8.094,3.306 z m 71.706,18.012 v 0 q -10.032,0 -15.618,-5.757 v 0 0 q -5.586,-5.757 -5.586,-15.903 v 0 -22.23 h -7.296 v -14.136 h 9.006 l 10.602,-21.546 h 11.514 v 21.546 h 13.224 v 14.136 h -13.224 v 19.38 0 q 0,2.85 1.824,4.446 v 0 0 q 1.824,1.596 5.13,1.596 v 0 0 q 3.078,0 5.586,-1.368 v 0 l 0.912,15.96 v 0 q -2.85,1.71 -7.353,2.793 v 0 0 q -4.503,1.083 -8.721,1.083 z m 53.01,0 v 0 q -9.462,0 -16.815,-3.819 v 0 0 q -7.353,-3.819 -11.457,-10.488 v 0 0 q -4.104,-6.669 -4.104,-15.105 v 0 0 q 0,-8.664 4.218,-15.39 v 0 0 q 4.218,-6.726 11.4,-10.374 v 0 0 q 7.182,-3.648 15.96,-3.648 v 0 0 q 8.436,0 14.421,3.705 v 0 0 q 5.985,3.705 8.949,10.032 v 0 0 q 2.964,6.327 2.964,14.193 v 0 0 q 0,2.052 -0.228,2.964 v 0 l -34.2,4.446 v 0 q 1.368,3.99 4.446,5.757 v 0 0 q 3.078,1.767 8.094,1.767 v 0 0 q 7.752,0 16.758,-3.99 v 0 l 2.85,15.276 v 0 q -10.602,4.674 -23.256,4.674 z m -9.804,-33.972 17.67,-3.876 v 0 q -1.824,-7.182 -8.664,-7.182 v 0 0 q -4.104,0 -6.498,3.078 v 0 0 q -2.394,3.078 -2.508,7.98 z M 683.083,265.473 v -78.432 h 25.65 v 31.236 h 24.282 v -31.236 h 25.764 v 78.432 h -25.764 v -30.78 h -24.282 v 30.78 z m 102.714,0 v -61.104 h -16.302 v -17.328 h 59.166 v 17.328 h -16.302 v 61.104 z m 53.58,0 v -78.432 h 23.712 l 19.608,38.076 19.152,-38.076 h 23.712 v 78.432 h -23.712 v -41.838 l -14.478,27.36 h -9.69 l -14.592,-27.36 v 41.838 z m 101.118,0 v -78.432 h 24.624 v 61.104 h 27.246 v 17.328 z"
     fill="none"
     id="path176"
     clip-path="url(#clipPath888)" /><path
     d="m 539.614,425.985 v 0 q -7.068,0 -13.11,-0.228 v 0 0 q -6.042,-0.228 -16.53,-1.026 v 0 -78.546 h 39.216 v 0 q 8.322,0 14.991,2.337 v 0 0 q 6.669,2.337 10.431,6.669 v 0 0 q 3.762,4.332 3.762,10.032 v 0 0 q 0,7.068 -3.078,11.115 v 0 0 q -3.078,4.047 -9.348,5.643 v 0 0 q 15.96,2.508 15.96,18.81 v 0 0 q 0,11.286 -10.317,18.24 v 0 0 q -10.317,6.954 -31.977,6.954 z m -4.218,-48.792 h 9.006 v 0 q 4.446,0 7.353,-2.166 v 0 0 q 2.907,-2.166 2.907,-5.586 v 0 0 q 0,-8.094 -10.032,-8.094 v 0 h -9.234 z m 8.55,30.894 v 0 q 6.27,0 9.633,-2.337 v 0 0 q 3.363,-2.337 3.363,-6.555 v 0 0 q 0,-4.56 -3.078,-7.011 v 0 0 q -3.078,-2.451 -8.778,-2.451 v 0 h -9.804 v 18.012 0 q 5.13,0.342 8.664,0.342 z m 76.494,17.442 v 0 q -9.576,0 -17.043,-3.762 v 0 0 q -7.467,-3.762 -11.628,-10.431 v 0 0 q -4.161,-6.669 -4.161,-15.333 v 0 0 q 0,-8.664 4.218,-15.333 v 0 0 q 4.218,-6.669 11.685,-10.317 v 0 0 q 7.467,-3.648 17.043,-3.648 v 0 0 q 9.69,0 17.157,3.705 v 0 0 q 7.467,3.705 11.571,10.317 v 0 0 q 4.104,6.612 4.104,15.276 v 0 0 q 0,8.778 -4.161,15.447 v 0 0 q -4.161,6.669 -11.628,10.374 v 0 0 q -7.467,3.705 -17.157,3.705 z m 0.228,-17.1 v 0 q 4.674,0 7.695,-3.477 v 0 0 q 3.021,-3.477 3.021,-8.949 v 0 0 q 0,-5.472 -3.021,-8.949 v 0 0 q -3.021,-3.477 -7.695,-3.477 v 0 0 q -4.674,0 -7.695,3.477 v 0 0 q -3.021,3.477 -3.021,8.949 v 0 0 q 0,5.472 3.021,8.949 v 0 0 q 3.021,3.477 7.695,3.477 z m 61.332,17.1 v 0 q -9.576,0 -14.934,-6.156 v 0 0 q -5.358,-6.156 -5.358,-16.758 v 0 -35.112 h 24.168 v 34.086 0 q 0,2.622 1.425,4.047 v 0 0 q 1.425,1.425 3.705,1.425 v 0 0 q 2.28,0 4.674,-1.368 v 0 l 1.254,15.846 v 0 q -2.508,1.938 -6.555,2.964 v 0 0 q -4.047,1.026 -8.379,1.026 z m -8.208,-66.576 v 0 q -5.358,0 -9.063,-3.363 v 0 0 q -3.705,-3.363 -3.705,-8.265 v 0 0 q 0,-4.902 3.876,-8.208 v 0 0 q 3.876,-3.306 8.892,-3.306 v 0 0 q 5.244,0 9.063,3.42 v 0 0 q 3.819,3.42 3.819,8.094 v 0 0 q 0,5.016 -3.876,8.322 v 0 0 q -3.876,3.306 -9.006,3.306 z m 49.818,66.576 v 0 q -9.69,0 -14.991,-6.099 v 0 0 q -5.301,-6.099 -5.301,-16.701 v 0 -53.238 l 24.054,-3.534 v 55.062 0 q 0,3.192 1.539,4.617 v 0 0 q 1.539,1.425 5.415,1.425 v 0 0 q 2.85,0 5.586,-1.368 v 0 l 0.798,15.96 v 0 q -7.638,3.876 -17.1,3.876 z m 52.554,0 v 0 q -9.462,0 -16.815,-3.819 v 0 0 q -7.353,-3.819 -11.457,-10.488 v 0 0 q -4.104,-6.669 -4.104,-15.105 v 0 0 q 0,-8.664 4.218,-15.39 v 0 0 q 4.218,-6.726 11.4,-10.374 v 0 0 q 7.182,-3.648 15.96,-3.648 v 0 0 q 8.436,0 14.421,3.705 v 0 0 q 5.985,3.705 8.949,10.032 v 0 0 q 2.964,6.327 2.964,14.193 v 0 0 q 0,2.052 -0.228,2.964 v 0 l -34.2,4.446 v 0 q 1.368,3.99 4.446,5.757 v 0 0 q 3.078,1.767 8.094,1.767 v 0 0 q 7.752,0 16.758,-3.99 v 0 l 2.85,15.276 v 0 q -10.602,4.674 -23.256,4.674 z m -9.804,-33.972 17.67,-3.876 v 0 q -1.824,-7.182 -8.664,-7.182 v 0 0 q -4.104,0 -6.498,3.078 v 0 0 q -2.394,3.078 -2.508,7.98 z m 43.662,33.06 v -56.316 h 24.054 v 11.628 0 q 2.622,-6.726 7.125,-9.975 v 0 0 q 4.503,-3.249 10.545,-3.249 v 0 l 3.306,18.582 v 0 q -10.83,0 -15.903,2.337 v 0 0 q -5.073,2.337 -5.073,7.353 v 0 29.64 z m 50.844,19.38 v -75.696 h 24.054 v 9.918 0 q 5.472,-11.514 18.582,-11.514 v 0 0 q 7.638,0 14.079,3.819 v 0 0 q 6.441,3.819 10.146,10.545 v 0 0 q 3.705,6.726 3.705,15.048 v 0 0 q 0,8.322 -3.819,15.048 v 0 0 q -3.819,6.726 -10.26,10.545 v 0 0 q -6.441,3.819 -13.737,3.819 v 0 0 q -12.996,0 -18.696,-11.514 v 0 25.422 z m 35.454,-36.48 v 0 q 4.674,0 7.98,-3.42 v 0 0 q 3.306,-3.42 3.306,-7.98 v 0 0 q 0,-4.788 -3.363,-8.094 v 0 0 q -3.363,-3.306 -7.923,-3.306 v 0 0 q -4.674,0 -7.98,3.249 v 0 0 q -3.306,3.249 -3.306,7.695 v 0 0.456 0 q 0,4.788 3.363,8.094 v 0 0 q 3.363,3.306 7.923,3.306 z m 63.84,18.012 v 0 q -9.69,0 -14.991,-6.099 v 0 0 q -5.301,-6.099 -5.301,-16.701 v 0 -53.238 l 24.054,-3.534 v 55.062 0 q 0,3.192 1.539,4.617 v 0 0 q 1.539,1.425 5.415,1.425 v 0 0 q 2.85,0 5.586,-1.368 v 0 l 0.798,15.96 v 0 q -7.638,3.876 -17.1,3.876 z m 48.222,0 v 0 q -7.41,0 -13.851,-3.933 v 0 0 q -6.441,-3.933 -10.317,-10.716 v 0 0 q -3.876,-6.783 -3.876,-15.105 v 0 0 q 0,-8.208 3.876,-14.877 v 0 0 q 3.876,-6.669 10.374,-10.431 v 0 0 q 6.498,-3.762 13.794,-3.762 v 0 0 q 5.928,0 11.001,3.306 v 0 0 q 5.073,3.306 7.695,9.918 v 0 -13.224 h 23.94 v 57.912 h -23.94 v -10.602 0 q -5.7,11.514 -18.696,11.514 z m 7.41,-18.012 v 0 q 4.56,0 7.809,-3.249 v 0 0 q 3.249,-3.249 3.477,-7.695 v 0 -0.912 0 q -0.228,-4.56 -3.591,-7.752 v 0 0 q -3.363,-3.192 -7.695,-3.192 v 0 0 q -4.788,0 -8.151,3.363 v 0 0 q -3.363,3.363 -3.363,8.037 v 0 0 q 0,4.788 3.42,8.094 v 0 0 q 3.42,3.306 8.094,3.306 z m 71.706,18.012 v 0 q -10.032,0 -15.618,-5.757 v 0 0 q -5.586,-5.757 -5.586,-15.903 v 0 -22.23 h -7.296 v -14.136 h 9.006 l 10.602,-21.546 h 11.514 v 21.546 h 13.224 v 14.136 h -13.224 v 19.38 0 q 0,2.85 1.824,4.446 v 0 0 q 1.824,1.596 5.13,1.596 v 0 0 q 3.078,0 5.586,-1.368 v 0 l 0.912,15.96 v 0 q -2.85,1.71 -7.353,2.793 v 0 0 q -4.503,1.083 -8.721,1.083 z m 53.01,0 v 0 q -9.462,0 -16.815,-3.819 v 0 0 q -7.353,-3.819 -11.457,-10.488 v 0 0 q -4.104,-6.669 -4.104,-15.105 v 0 0 q 0,-8.664 4.218,-15.39 v 0 0 q 4.218,-6.726 11.4,-10.374 v 0 0 q 7.182,-3.648 15.96,-3.648 v 0 0 q 8.436,0 14.421,3.705 v 0 0 q 5.985,3.705 8.949,10.032 v 0 0 q 2.964,6.327 2.964,14.193 v 0 0 q 0,2.052 -0.228,2.964 v 0 l -34.2,4.446 v 0 q 1.368,3.99 4.446,5.757 v 0 0 q 3.078,1.767 8.094,1.767 v 0 0 q 7.752,0 16.758,-3.99 v 0 l 2.85,15.276 v 0 q -10.602,4.674 -23.256,4.674 z m -9.804,-33.972 17.67,-3.876 v 0 q -1.824,-7.182 -8.664,-7.182 v 0 0 q -4.104,0 -6.498,3.078 v 0 0 q -2.394,3.078 -2.508,7.98 z M 683.083,265.473 v -78.432 h 25.65 v 31.236 h 24.282 v -31.236 h 25.764 v 78.432 h -25.764 v -30.78 h -24.282 v 30.78 z m 102.714,0 v -61.104 h -16.302 v -17.328 h 59.166 v 17.328 h -16.302 v 61.104 z m 53.58,0 v -78.432 h 23.712 l 19.608,38.076 19.152,-38.076 h 23.712 v 78.432 h -23.712 v -41.838 l -14.478,27.36 h -9.69 l -14.592,-27.36 v 41.838 z m 101.118,0 v -78.432 h 24.624 v 61.104 h 27.246 v 17.328 z"
     fill="none"
     id="path178"
     clip-path="url(#clipPath882)" /><path
     d="m 539.614,425.985 v 0 q -7.068,0 -13.11,-0.228 v 0 0 q -6.042,-0.228 -16.53,-1.026 v 0 -78.546 h 39.216 v 0 q 8.322,0 14.991,2.337 v 0 0 q 6.669,2.337 10.431,6.669 v 0 0 q 3.762,4.332 3.762,10.032 v 0 0 q 0,7.068 -3.078,11.115 v 0 0 q -3.078,4.047 -9.348,5.643 v 0 0 q 15.96,2.508 15.96,18.81 v 0 0 q 0,11.286 -10.317,18.24 v 0 0 q -10.317,6.954 -31.977,6.954 z m -4.218,-48.792 h 9.006 v 0 q 4.446,0 7.353,-2.166 v 0 0 q 2.907,-2.166 2.907,-5.586 v 0 0 q 0,-8.094 -10.032,-8.094 v 0 h -9.234 z m 8.55,30.894 v 0 q 6.27,0 9.633,-2.337 v 0 0 q 3.363,-2.337 3.363,-6.555 v 0 0 q 0,-4.56 -3.078,-7.011 v 0 0 q -3.078,-2.451 -8.778,-2.451 v 0 h -9.804 v 18.012 0 q 5.13,0.342 8.664,0.342 z m 76.494,17.442 v 0 q -9.576,0 -17.043,-3.762 v 0 0 q -7.467,-3.762 -11.628,-10.431 v 0 0 q -4.161,-6.669 -4.161,-15.333 v 0 0 q 0,-8.664 4.218,-15.333 v 0 0 q 4.218,-6.669 11.685,-10.317 v 0 0 q 7.467,-3.648 17.043,-3.648 v 0 0 q 9.69,0 17.157,3.705 v 0 0 q 7.467,3.705 11.571,10.317 v 0 0 q 4.104,6.612 4.104,15.276 v 0 0 q 0,8.778 -4.161,15.447 v 0 0 q -4.161,6.669 -11.628,10.374 v 0 0 q -7.467,3.705 -17.157,3.705 z m 0.228,-17.1 v 0 q 4.674,0 7.695,-3.477 v 0 0 q 3.021,-3.477 3.021,-8.949 v 0 0 q 0,-5.472 -3.021,-8.949 v 0 0 q -3.021,-3.477 -7.695,-3.477 v 0 0 q -4.674,0 -7.695,3.477 v 0 0 q -3.021,3.477 -3.021,8.949 v 0 0 q 0,5.472 3.021,8.949 v 0 0 q 3.021,3.477 7.695,3.477 z m 61.332,17.1 v 0 q -9.576,0 -14.934,-6.156 v 0 0 q -5.358,-6.156 -5.358,-16.758 v 0 -35.112 h 24.168 v 34.086 0 q 0,2.622 1.425,4.047 v 0 0 q 1.425,1.425 3.705,1.425 v 0 0 q 2.28,0 4.674,-1.368 v 0 l 1.254,15.846 v 0 q -2.508,1.938 -6.555,2.964 v 0 0 q -4.047,1.026 -8.379,1.026 z m -8.208,-66.576 v 0 q -5.358,0 -9.063,-3.363 v 0 0 q -3.705,-3.363 -3.705,-8.265 v 0 0 q 0,-4.902 3.876,-8.208 v 0 0 q 3.876,-3.306 8.892,-3.306 v 0 0 q 5.244,0 9.063,3.42 v 0 0 q 3.819,3.42 3.819,8.094 v 0 0 q 0,5.016 -3.876,8.322 v 0 0 q -3.876,3.306 -9.006,3.306 z m 49.818,66.576 v 0 q -9.69,0 -14.991,-6.099 v 0 0 q -5.301,-6.099 -5.301,-16.701 v 0 -53.238 l 24.054,-3.534 v 55.062 0 q 0,3.192 1.539,4.617 v 0 0 q 1.539,1.425 5.415,1.425 v 0 0 q 2.85,0 5.586,-1.368 v 0 l 0.798,15.96 v 0 q -7.638,3.876 -17.1,3.876 z m 52.554,0 v 0 q -9.462,0 -16.815,-3.819 v 0 0 q -7.353,-3.819 -11.457,-10.488 v 0 0 q -4.104,-6.669 -4.104,-15.105 v 0 0 q 0,-8.664 4.218,-15.39 v 0 0 q 4.218,-6.726 11.4,-10.374 v 0 0 q 7.182,-3.648 15.96,-3.648 v 0 0 q 8.436,0 14.421,3.705 v 0 0 q 5.985,3.705 8.949,10.032 v 0 0 q 2.964,6.327 2.964,14.193 v 0 0 q 0,2.052 -0.228,2.964 v 0 l -34.2,4.446 v 0 q 1.368,3.99 4.446,5.757 v 0 0 q 3.078,1.767 8.094,1.767 v 0 0 q 7.752,0 16.758,-3.99 v 0 l 2.85,15.276 v 0 q -10.602,4.674 -23.256,4.674 z m -9.804,-33.972 17.67,-3.876 v 0 q -1.824,-7.182 -8.664,-7.182 v 0 0 q -4.104,0 -6.498,3.078 v 0 0 q -2.394,3.078 -2.508,7.98 z m 43.662,33.06 v -56.316 h 24.054 v 11.628 0 q 2.622,-6.726 7.125,-9.975 v 0 0 q 4.503,-3.249 10.545,-3.249 v 0 l 3.306,18.582 v 0 q -10.83,0 -15.903,2.337 v 0 0 q -5.073,2.337 -5.073,7.353 v 0 29.64 z m 50.844,19.38 v -75.696 h 24.054 v 9.918 0 q 5.472,-11.514 18.582,-11.514 v 0 0 q 7.638,0 14.079,3.819 v 0 0 q 6.441,3.819 10.146,10.545 v 0 0 q 3.705,6.726 3.705,15.048 v 0 0 q 0,8.322 -3.819,15.048 v 0 0 q -3.819,6.726 -10.26,10.545 v 0 0 q -6.441,3.819 -13.737,3.819 v 0 0 q -12.996,0 -18.696,-11.514 v 0 25.422 z m 35.454,-36.48 v 0 q 4.674,0 7.98,-3.42 v 0 0 q 3.306,-3.42 3.306,-7.98 v 0 0 q 0,-4.788 -3.363,-8.094 v 0 0 q -3.363,-3.306 -7.923,-3.306 v 0 0 q -4.674,0 -7.98,3.249 v 0 0 q -3.306,3.249 -3.306,7.695 v 0 0.456 0 q 0,4.788 3.363,8.094 v 0 0 q 3.363,3.306 7.923,3.306 z m 63.84,18.012 v 0 q -9.69,0 -14.991,-6.099 v 0 0 q -5.301,-6.099 -5.301,-16.701 v 0 -53.238 l 24.054,-3.534 v 55.062 0 q 0,3.192 1.539,4.617 v 0 0 q 1.539,1.425 5.415,1.425 v 0 0 q 2.85,0 5.586,-1.368 v 0 l 0.798,15.96 v 0 q -7.638,3.876 -17.1,3.876 z m 48.222,0 v 0 q -7.41,0 -13.851,-3.933 v 0 0 q -6.441,-3.933 -10.317,-10.716 v 0 0 q -3.876,-6.783 -3.876,-15.105 v 0 0 q 0,-8.208 3.876,-14.877 v 0 0 q 3.876,-6.669 10.374,-10.431 v 0 0 q 6.498,-3.762 13.794,-3.762 v 0 0 q 5.928,0 11.001,3.306 v 0 0 q 5.073,3.306 7.695,9.918 v 0 -13.224 h 23.94 v 57.912 h -23.94 v -10.602 0 q -5.7,11.514 -18.696,11.514 z m 7.41,-18.012 v 0 q 4.56,0 7.809,-3.249 v 0 0 q 3.249,-3.249 3.477,-7.695 v 0 -0.912 0 q -0.228,-4.56 -3.591,-7.752 v 0 0 q -3.363,-3.192 -7.695,-3.192 v 0 0 q -4.788,0 -8.151,3.363 v 0 0 q -3.363,3.363 -3.363,8.037 v 0 0 q 0,4.788 3.42,8.094 v 0 0 q 3.42,3.306 8.094,3.306 z m 71.706,18.012 v 0 q -10.032,0 -15.618,-5.757 v 0 0 q -5.586,-5.757 -5.586,-15.903 v 0 -22.23 h -7.296 v -14.136 h 9.006 l 10.602,-21.546 h 11.514 v 21.546 h 13.224 v 14.136 h -13.224 v 19.38 0 q 0,2.85 1.824,4.446 v 0 0 q 1.824,1.596 5.13,1.596 v 0 0 q 3.078,0 5.586,-1.368 v 0 l 0.912,15.96 v 0 q -2.85,1.71 -7.353,2.793 v 0 0 q -4.503,1.083 -8.721,1.083 z m 53.01,0 v 0 q -9.462,0 -16.815,-3.819 v 0 0 q -7.353,-3.819 -11.457,-10.488 v 0 0 q -4.104,-6.669 -4.104,-15.105 v 0 0 q 0,-8.664 4.218,-15.39 v 0 0 q 4.218,-6.726 11.4,-10.374 v 0 0 q 7.182,-3.648 15.96,-3.648 v 0 0 q 8.436,0 14.421,3.705 v 0 0 q 5.985,3.705 8.949,10.032 v 0 0 q 2.964,6.327 2.964,14.193 v 0 0 q 0,2.052 -0.228,2.964 v 0 l -34.2,4.446 v 0 q 1.368,3.99 4.446,5.757 v 0 0 q 3.078,1.767 8.094,1.767 v 0 0 q 7.752,0 16.758,-3.99 v 0 l 2.85,15.276 v 0 q -10.602,4.674 -23.256,4.674 z m -9.804,-33.972 17.67,-3.876 v 0 q -1.824,-7.182 -8.664,-7.182 v 0 0 q -4.104,0 -6.498,3.078 v 0 0 q -2.394,3.078 -2.508,7.98 z M 683.083,265.473 v -78.432 h 25.65 v 31.236 h 24.282 v -31.236 h 25.764 v 78.432 h -25.764 v -30.78 h -24.282 v 30.78 z m 102.714,0 v -61.104 h -16.302 v -17.328 h 59.166 v 17.328 h -16.302 v 61.104 z m 53.58,0 v -78.432 h 23.712 l 19.608,38.076 19.152,-38.076 h 23.712 v 78.432 h -23.712 v -41.838 l -14.478,27.36 h -9.69 l -14.592,-27.36 v 41.838 z m 101.118,0 v -78.432 h 24.624 v 61.104 h 27.246 v 17.328 z"
     fill="#f5f4f5"
     id="path180"
     clip-path="url(#clipPath876)" /><g
     id="g521"><g
       id="g174"
       clip-path="url(#clipPath894)"><g
         id="g172"><defs
           id="defs19"><filter
             id="veVL1nmeOA8OXcyK8pIEpuyENXvSm7ZV"
             x="-0.21400923"
             y="-0.21266974"
             width="1.4280185"
             height="1.4253395"
             filterUnits="objectBoundingBox"
             color-interpolation-filters="sRGB"><feGaussianBlur
               stdDeviation="21.46804531419514"
               id="feGaussianBlur16" /></filter></defs><g
           opacity="0.4"
           filter="url(#veVL1nmeOA8OXcyK8pIEpuyENXvSm7ZV)"
           id="g23"><ellipse
             vector-effect="non-scaling-stroke"
             cx="309.0701"
             cy="316.93201"
             rx="120.37637"
             ry="121.13456"
             fill="#000000"
             id="ellipse21" /></g><ellipse
           vector-effect="non-scaling-stroke"
           cx="309.0701"
           cy="316.93201"
           rx="120.37637"
           ry="121.13456"
           fill="#fcc060"
           id="ellipse25" /><path
           d="M 342.64,200.605 238.758,415.159 c 20.47,14.866 45.067,22.88 70.312,22.907 66.482,0 120.376,-54.233 120.377,-121.134 -10e-4,-53.889 -35.379,-101.299 -86.807,-116.327 z"
           fill="#fdaf54"
           id="path27" /><ellipse
           vector-effect="non-scaling-stroke"
           cx="309.0701"
           cy="316.93201"
           rx="111.58083"
           ry="112.28364"
           fill="#f19043"
           id="ellipse29" /><ellipse
           vector-effect="non-scaling-stroke"
           cx="309.0701"
           cy="316.93201"
           rx="107.53841"
           ry="108.21574"
           fill="#f5ede5"
           id="ellipse31" /><path
           d="M 337.147,212.429 245.72,404.58 c 18.429,13.346 40.596,20.542 63.35,20.568 28.701,0 56.226,-11.401 76.52,-31.696 20.294,-20.294 31.695,-47.819 31.695,-76.52 -0.002,-48.95 -32.864,-91.803 -80.138,-104.503 z"
           fill="#d6b293"
           id="path33" /><circle
           vector-effect="non-scaling-stroke"
           cx="309.07001"
           cy="316.93201"
           r="108.21504"
           fill="none"
           id="circle35" /><linearGradient
           id="_lgradient_3"
           x1="0.47564632"
           y1="3.7351158e-06"
           x2="0.47564632"
           y2="0.99997866"
           gradientTransform="matrix(147.605,0,0,27.653,234.87,189.925)"
           gradientUnits="userSpaceOnUse"><stop
             offset="0%"
             stop-opacity="1"
             style="stop-color:rgb(255,255,255)"
             id="stop37" /><stop
             offset="100%"
             stop-opacity="1"
             style="stop-color:rgb(224,224,224)"
             id="stop39" /></linearGradient><path
           d="m 242.415,189.925 c -4.18,0 -7.545,3.365 -7.545,7.545 v 4.481 8.08 7.547 h 7.545 132.514 7.546 v -7.547 -8.08 -4.481 c 0,-4.18 -3.365,-7.545 -7.546,-7.545 z"
           fill="url(#_lgradient_3)"
           id="path42"
           style="fill:url(#_lgradient_3)" /><rect
           x="305.078"
           y="189.925"
           width="8.6960001"
           height="27.653"
           fill="#f2e9e0"
           id="rect44" /><g
           id="g56"><path
             d="m 252.026,157.403 h 11.108 c 1.73,0 3.135,1.405 3.135,3.135 v 0 c 0,1.73 -1.405,3.135 -3.135,3.135 h -11.108 c -1.73,0 -3.135,-1.405 -3.135,-3.135 v 0 c 0,-1.73 1.405,-3.135 3.135,-3.135 z"
             style="fill:#ffffff;stroke:none;stroke-miterlimit:10"
             id="path46" /><path
             d="m 257.028,166.71 h 24.049 c 1.615,0 2.926,1.311 2.926,2.926 v 0 c 0,1.616 -1.311,2.927 -2.926,2.927 h -24.049 c -1.616,0 -2.927,-1.311 -2.927,-2.927 v 0 c 0,-1.615 1.311,-2.926 2.927,-2.926 z"
             style="fill:#ffffff;stroke:none;stroke-miterlimit:10"
             id="path48" /><path
             d="m 264.854,178.577 h 9.929 c 1.615,0 2.926,1.311 2.926,2.926 v 0.435 c 0,1.615 -1.311,2.926 -2.926,2.926 h -9.929 c -1.615,0 -2.927,-1.311 -2.927,-2.926 v -0.435 c 0,-1.615 1.312,-2.926 2.927,-2.926 z"
             style="fill:#ffffff;stroke:none;stroke-miterlimit:10"
             id="path50" /><path
             d="m 350.734,169.473 h 14.54 c 1.616,0 2.927,1.311 2.927,2.927 v 0.252 c 0,1.616 -1.311,2.927 -2.927,2.927 h -14.54 c -1.615,0 -2.927,-1.311 -2.927,-2.927 V 172.4 c 0,-1.616 1.312,-2.927 2.927,-2.927 z"
             style="fill:#ffffff;stroke:none;stroke-miterlimit:10"
             id="path52" /><path
             d="m 353.26,178.784 h 7.087 c 1.615,0 2.927,1.312 2.927,2.927 v 0.077 c 0,1.615 -1.312,2.927 -2.927,2.927 h -7.087 c -1.615,0 -2.926,-1.312 -2.926,-2.927 v -0.077 c 0,-1.615 1.311,-2.927 2.926,-2.927 z"
             style="fill:#ffffff;stroke:none;stroke-miterlimit:10"
             id="path54" /></g><g
           id="g72"><ellipse
             vector-effect="non-scaling-stroke"
             cx="355.18082"
             cy="204.51787"
             rx="2.8233397"
             ry="2.7738123"
             fill="#623525"
             id="ellipse58" /><g
             id="g60" /><g
             id="g70"><path
               d="m 246.859,205.074 h 9.625 c 0,0 -0.173,3.141 -2.594,4.551 -1.224,0.163 -2.372,0.225 -3.505,-0.051 -2.333,-1.289 -2.422,-2.987 -3.526,-4.5 z"
               fill="#e59646"
               id="path62" /><path
               d="m 248.776,199.591 v 0 c 0.286,0 0.518,0.233 0.518,0.519 v 3.727 c 0,0.286 -0.232,0.519 -0.518,0.519 v 0 c -0.287,0 -0.519,-0.233 -0.519,-0.519 v -3.727 c 0,-0.286 0.232,-0.519 0.519,-0.519 z"
               style="fill:#d9530b;stroke:none;stroke-miterlimit:10"
               id="path64" /><path
               d="m 252.19,199.591 v 0 c 0.286,0 0.519,0.233 0.519,0.519 v 3.727 c 0,0.286 -0.233,0.519 -0.519,0.519 v 0 c -0.286,0 -0.519,-0.233 -0.519,-0.519 v -3.727 c 0,-0.286 0.233,-0.519 0.519,-0.519 z"
               style="fill:#d9530b;stroke:none;stroke-miterlimit:10"
               id="path66" /><path
               d="m 255.457,199.591 v 0 c 0.286,0 0.518,0.233 0.518,0.519 v 3.727 c 0,0.286 -0.232,0.519 -0.518,0.519 v 0 c -0.287,0 -0.519,-0.233 -0.519,-0.519 v -3.727 c 0,-0.286 0.232,-0.519 0.519,-0.519 z"
               style="fill:#d9530b;stroke:none;stroke-miterlimit:10"
               id="path68" /></g></g><rect
           x="236.713"
           y="217.578"
           width="72.273003"
           height="5.8779998"
           fill="#9e8e77"
           id="rect74" /><rect
           x="308.987"
           y="217.578"
           width="72.841003"
           height="5.8779998"
           fill="#6c5648"
           id="rect76" /><g
           id="g84"><path
             d="m 278.039,199.209 c 1.926,0.81 3.022,2.9 2.616,4.988 -0.405,2.089 -2.198,3.592 -4.28,3.588 -2.081,-0.004 -3.869,-1.513 -4.268,-3.603 -0.398,-2.09 0.706,-4.176 2.634,-4.979"
             fill="none"
             vector-effect="non-scaling-stroke"
             stroke-width="0.747"
             stroke="#623525"
             stroke-linejoin="round"
             stroke-linecap="round"
             stroke-miterlimit="4"
             id="path78" /><path
             d="m 276.383,197.399 c -0.099,-0.001 -0.195,0.038 -0.265,0.109 -0.071,0.071 -0.11,0.167 -0.11,0.267 l 0.002,5.537 c 0.005,0.204 0.171,0.366 0.373,0.365 0.099,0.001 0.195,-0.039 0.265,-0.109 0.07,-0.071 0.11,-0.167 0.109,-0.268 l -0.001,-5.536 c -0.005,-0.204 -0.171,-0.366 -0.373,-0.365 z"
             fill="#623525"
             id="path80" /><path
             d="m 276.757,202.454 c 0.435,0.179 0.683,0.641 0.591,1.102 -0.091,0.462 -0.497,0.794 -0.967,0.793 -0.47,-10e-4 -0.874,-0.335 -0.964,-0.796 -0.09,-0.462 0.159,-0.923 0.595,-1.1"
             fill="#623525"
             id="path82" /></g><g
           id="g161"><linearGradient
             id="_lgradient_4"
             x1="0.4968015"
             y1="2.0415561e-07"
             x2="0.4968015"
             y2="1"
             gradientTransform="matrix(181.362,0,0,194.386,218.886,223.456)"
             gradientUnits="userSpaceOnUse"><stop
               offset="0%"
               stop-opacity="1"
               style="stop-color:rgb(255,255,255)"
               id="stop86" /><stop
               offset="100%"
               stop-opacity="1"
               style="stop-color:rgb(216,216,216)"
               id="stop88" /></linearGradient><path
             d="m 219.863,223.456 c -0.542,0 -0.977,0.436 -0.977,0.977 v 1.644 4.015 119.712 c 0,37.693 30.345,68.039 68.039,68.039 h 45.284 c 37.693,0 68.039,-30.346 68.039,-68.039 v -119.712 -4.088 -1.571 c 0,-0.541 -0.435,-0.977 -0.976,-0.977 z"
             fill="url(#_lgradient_4)"
             id="path91"
             style="fill:url(#_lgradient_4)" /><g
             id="g107"><path
               d="m 247.584,249.673 c 0,0 11.336,-5.811 22.122,-5.054"
               fill="none"
               vector-effect="non-scaling-stroke"
               stroke-width="5.287"
               stroke="#6d3a27"
               stroke-linejoin="round"
               stroke-linecap="round"
               stroke-miterlimit="4"
               id="path93" /><g
               id="g105"><circle
                 vector-effect="non-scaling-stroke"
                 cx="262.47244"
                 cy="280.40002"
                 r="24.427774"
                 fill="#6d3322"
                 id="circle95" /><circle
                 vector-effect="non-scaling-stroke"
                 cx="262.47244"
                 cy="284.90002"
                 r="24.427774"
                 fill="#e2e0cc"
                 id="circle97" /><circle
                 vector-effect="non-scaling-stroke"
                 cx="262.55444"
                 cy="284.90002"
                 r="22.056164"
                 fill="#fdfdfb"
                 id="circle99" /><circle
                 vector-effect="non-scaling-stroke"
                 cx="264.2623"
                 cy="286.94876"
                 r="13.833405"
                 fill="#6b3b27"
                 id="circle101" /><circle
                 vector-effect="non-scaling-stroke"
                 cx="266.18076"
                 cy="280.12924"
                 r="4.3979731"
                 fill="#ffffff"
                 id="circle103" /></g></g><g
             id="g123"><path
               d="m 369.777,249.673 c 0,0 -11.336,-5.811 -22.122,-5.054"
               fill="none"
               vector-effect="non-scaling-stroke"
               stroke-width="5.287"
               stroke="#6d3a27"
               stroke-linejoin="round"
               stroke-linecap="round"
               stroke-miterlimit="4"
               id="path109" /><g
               id="g121"><circle
                 vector-effect="non-scaling-stroke"
                 cx="355.32523"
                 cy="280.40002"
                 r="24.427774"
                 fill="#6d3322"
                 id="circle111" /><circle
                 vector-effect="non-scaling-stroke"
                 cx="355.32523"
                 cy="284.90002"
                 r="24.427774"
                 fill="#e2e0cc"
                 id="circle113" /><circle
                 vector-effect="non-scaling-stroke"
                 cx="355.40723"
                 cy="284.90002"
                 r="22.056164"
                 fill="#fdfdfb"
                 id="circle115" /><circle
                 vector-effect="non-scaling-stroke"
                 cx="357.11508"
                 cy="286.94876"
                 r="13.833405"
                 fill="#6b3b27"
                 id="circle117" /><circle
                 vector-effect="non-scaling-stroke"
                 cx="359.03354"
                 cy="280.12924"
                 r="4.3979731"
                 fill="#ffffff"
                 id="circle119" /></g></g><g
             id="g143"><path
               d="m 309.109,326.362 c -32.201,0 -61.482,-9.611 -61.482,-9.611 -29.623,-15.969 -13.156,75.917 58.181,75.917 81.694,0 91.737,-92.413 62.456,-75.709 0,0 -37.691,9.403 -59.155,9.403 z"
               fill="#542b19"
               id="path125" /><path
               d="m 308.987,330.436 c -26.276,0 -58.578,-8.192 -68.41,-10.29 -4.649,-0.992 3.711,66.252 65.411,66.252 61.701,0 74.878,-63.016 69.774,-66.252 -0.915,-1.515 -40.5,10.29 -66.775,10.29 z"
               fill="#482411"
               id="path127" /><g
               id="g139"><path
                 d="m 261.363,324.495 c 0,0 1.982,16.92 3.827,18.239 0,0 21.607,6.107 43.797,6.107 22.654,0 42.658,-6.4 42.658,-6.4 2.787,-7.38 3.237,-17.922 3.237,-17.922 0,0 -22.061,5.917 -45.895,5.917 -25.576,0 -47.624,-5.941 -47.624,-5.941 z"
                 fill="#ffffff"
                 id="path129" /><g
                 id="g137"><path
                   d="m 305.969,365.386 c -15.663,-2.202 -33.54,-7.398 -45.919,-1.761 8.21,8.572 18.303,20.428 46.007,20.602 35.108,0.221 42.873,-13.885 50.121,-20.709 -16.301,-6.588 -29.113,2.721 -50.209,1.868 z"
                   fill="#be5223"
                   id="path131" /><path
                   d="m 277.79,366.239 c 0,0 11.212,5.536 28.106,5.536 21.738,0 30.293,-4.52 30.293,-4.52 v 11.9 c 0,0 -10.777,5.072 -30.132,5.072 -16.227,0 -28.267,-6.202 -28.267,-6.202 z"
                   fill="#f67b39"
                   id="path133" /><path
                   d="m 277.79,368.767 v 9.258 c 6.644,3.617 16.814,5.869 27.851,6.167 v -9.253 c -11.039,-0.299 -21.209,-2.553 -27.851,-6.172 z m 58.399,1.13 c -7.191,3.233 -17.38,5.078 -28.067,5.08 -0.548,-0.002 -1.096,-0.008 -1.643,-0.019 v 9.25 c 0.322,0.008 0.644,0.015 0.967,0.019 h 1.353 c 10.448,-0.077 20.356,-1.912 27.39,-5.072 z"
                   fill="#ffffff"
                   id="path135" /></g></g><path
               d="m 240.577,320.146 c -1.025,1.37 -2.443,1.781 -2.687,3.922 -0.651,5.731 8.151,56.442 56.08,63.861 l -0.008,0.001 c 0,0 0.055,0.007 0.058,0.008 1.109,0.171 2.241,0.316 3.391,0.439 0,10e-4 0,10e-4 0,0.002 v 0.003 c 3.198,0.472 7.048,0.575 10.758,0.506 3.711,0.069 7.56,-0.034 10.758,-0.506 v -0.003 c 0.003,-0.001 0.006,-0.002 0.009,-0.003 1.147,-0.123 2.276,-0.268 3.382,-0.438 0.004,0 0.059,-0.007 0.059,-0.007 l -0.009,-0.002 c 47.929,-7.419 56.731,-58.13 56.08,-63.861 -0.243,-2.141 -1.662,-2.552 -2.686,-3.922 -6.395,1.053 -2.167,51.929 -54.62,62.338 -2.739,0.398 -5.286,0.805 -7.266,1.133 -1.84,0.213 -3.742,0.38 -5.707,0.499 -66.13,-4.02 -60.712,-62.837 -67.592,-63.97 z"
               fill="#c4744b"
               id="path141" /></g><path
             d="m 344.714,396.081 c -0.601,0 -1.177,0.238 -1.602,0.663 -0.425,0.425 -0.664,1.001 -0.664,1.602 0,0.601 0.238,1.177 0.663,1.602 0.426,0.425 1.002,0.664 1.603,0.664 0.601,-0.001 1.177,-0.239 1.602,-0.664 0.425,-0.425 0.663,-1.002 0.663,-1.602 -10e-4,-1.251 -1.014,-2.265 -2.265,-2.265 z m -63.571,2.44 c -1.863,10e-4 -3.373,1.511 -3.374,3.374 0,1.863 1.51,3.374 3.374,3.375 0.895,0 1.754,-0.356 2.386,-0.989 0.633,-0.633 0.989,-1.491 0.989,-2.386 -10e-4,-1.864 -1.512,-3.374 -3.375,-3.374 z m 49.479,0.52 c -0.864,0 -1.693,0.344 -2.304,0.955 -0.612,0.611 -0.955,1.44 -0.955,2.305 0,0.864 0.343,1.693 0.955,2.304 0.611,0.611 1.44,0.955 2.304,0.955 0.865,0 1.694,-0.344 2.305,-0.955 0.611,-0.611 0.955,-1.44 0.955,-2.304 0,-0.865 -0.344,-1.694 -0.955,-2.305 -0.611,-0.611 -1.44,-0.955 -2.305,-0.955 z m -33.518,2.416 c -0.862,0 -1.688,0.342 -2.298,0.951 -0.609,0.61 -0.951,1.436 -0.951,2.298 0,1.794 1.455,3.248 3.249,3.247 1.794,0.001 3.248,-1.453 3.249,-3.247 0,-0.862 -0.342,-1.688 -0.952,-2.298 -0.609,-0.609 -1.435,-0.951 -2.297,-0.951 z m 16.673,0.285 c -1.719,10e-4 -3.113,1.394 -3.113,3.113 0,1.719 1.394,3.113 3.113,3.113 1.719,0 3.112,-1.394 3.112,-3.113 0,-1.719 -1.393,-3.112 -3.112,-3.113 z"
             fill="#5a2b1b"
             id="path145" /><g
             id="g159"><ellipse
               vector-effect="non-scaling-stroke"
               cx="405.45767"
               cy="320.14627"
               rx="13.941809"
               ry="14.465921"
               fill="#979795"
               id="ellipse147" /><ellipse
               vector-effect="non-scaling-stroke"
               cx="405.45767"
               cy="320.14627"
               rx="10.014845"
               ry="10.391333"
               fill="#f2f2f0"
               id="ellipse149" /><g
               id="g157"><path
                 d="m 407.744,315.073 c 2.491,1.047 3.909,3.752 3.385,6.454 -0.525,2.702 -2.845,4.647 -5.539,4.643 -2.693,-0.005 -5.007,-1.959 -5.522,-4.663 -0.515,-2.704 0.912,-5.403 3.407,-6.442"
                 fill="none"
                 vector-effect="non-scaling-stroke"
                 stroke-width="0.967"
                 stroke="#161513"
                 stroke-linejoin="round"
                 stroke-linecap="round"
                 stroke-miterlimit="4"
                 id="path151" /><path
                 d="m 405.6,312.729 c -0.128,-10e-4 -0.252,0.05 -0.343,0.142 -0.091,0.091 -0.142,0.216 -0.141,0.346 l 0.002,7.164 c 0.006,0.264 0.221,0.474 0.482,0.473 0.129,0.001 0.252,-0.05 0.343,-0.142 0.091,-0.091 0.142,-0.216 0.142,-0.345 l -0.002,-7.165 c -0.007,-0.264 -0.221,-0.474 -0.483,-0.473 z"
                 fill="#161513"
                 id="path153" /><path
                 d="m 406.085,319.271 c 0.563,0.232 0.883,0.829 0.765,1.426 -0.119,0.597 -0.643,1.027 -1.252,1.026 -0.609,-0.001 -1.132,-0.433 -1.248,-1.03 -0.116,-0.597 0.206,-1.194 0.77,-1.423"
                 fill="#161513"
                 id="path155" /></g></g></g><g
           opacity="0.267698"
           id="g170"><linearGradient
             id="_lgradient_5"
             x1="0.49804452"
             y1="2.3248688e-06"
             x2="0.49804452"
             y2="1.0000013"
             gradientTransform="matrix(145.114,0,0,5.878,236.713,217.578)"
             gradientUnits="userSpaceOnUse"><stop
               offset="0%"
               stop-opacity="1"
               style="stop-color:rgb(0,0,0)"
               id="stop163" /><stop
               offset="100%"
               stop-opacity="0"
               style="stop-color:rgb(0,0,0)"
               id="stop165" /></linearGradient><rect
             x="236.713"
             y="217.578"
             width="145.114"
             height="5.8779998"
             fill="url(#_lgradient_5)"
             id="rect168"
             style="fill:url(#_lgradient_5)" /></g></g></g><g
       style="isolation:isolate"
       id="g196"
       clip-path="url(#clipPath870)"><mask
         id="_mask_BSaTmp5wCI2DhKH7W01ycwOqyNd97YaI"
         x="-200%"
         y="-200%"
         width="400%"
         height="400%"><rect
           x="-200%"
           y="-200%"
           width="400%"
           height="400%"
           style="fill:#ffffff"
           id="rect182" /><path
           d="m 539.614,425.985 v 0 q -7.068,0 -13.11,-0.228 v 0 0 q -6.042,-0.228 -16.53,-1.026 v 0 -78.546 h 39.216 v 0 q 8.322,0 14.991,2.337 v 0 0 q 6.669,2.337 10.431,6.669 v 0 0 q 3.762,4.332 3.762,10.032 v 0 0 q 0,7.068 -3.078,11.115 v 0 0 q -3.078,4.047 -9.348,5.643 v 0 0 q 15.96,2.508 15.96,18.81 v 0 0 q 0,11.286 -10.317,18.24 v 0 0 q -10.317,6.954 -31.977,6.954 z m -4.218,-48.792 h 9.006 v 0 q 4.446,0 7.353,-2.166 v 0 0 q 2.907,-2.166 2.907,-5.586 v 0 0 q 0,-8.094 -10.032,-8.094 v 0 h -9.234 z m 8.55,30.894 v 0 q 6.27,0 9.633,-2.337 v 0 0 q 3.363,-2.337 3.363,-6.555 v 0 0 q 0,-4.56 -3.078,-7.011 v 0 0 q -3.078,-2.451 -8.778,-2.451 v 0 h -9.804 v 18.012 0 q 5.13,0.342 8.664,0.342 z m 76.494,17.442 v 0 q -9.576,0 -17.043,-3.762 v 0 0 q -7.467,-3.762 -11.628,-10.431 v 0 0 q -4.161,-6.669 -4.161,-15.333 v 0 0 q 0,-8.664 4.218,-15.333 v 0 0 q 4.218,-6.669 11.685,-10.317 v 0 0 q 7.467,-3.648 17.043,-3.648 v 0 0 q 9.69,0 17.157,3.705 v 0 0 q 7.467,3.705 11.571,10.317 v 0 0 q 4.104,6.612 4.104,15.276 v 0 0 q 0,8.778 -4.161,15.447 v 0 0 q -4.161,6.669 -11.628,10.374 v 0 0 q -7.467,3.705 -17.157,3.705 z m 0.228,-17.1 v 0 q 4.674,0 7.695,-3.477 v 0 0 q 3.021,-3.477 3.021,-8.949 v 0 0 q 0,-5.472 -3.021,-8.949 v 0 0 q -3.021,-3.477 -7.695,-3.477 v 0 0 q -4.674,0 -7.695,3.477 v 0 0 q -3.021,3.477 -3.021,8.949 v 0 0 q 0,5.472 3.021,8.949 v 0 0 q 3.021,3.477 7.695,3.477 z m 61.332,17.1 v 0 q -9.576,0 -14.934,-6.156 v 0 0 q -5.358,-6.156 -5.358,-16.758 v 0 -35.112 h 24.168 v 34.086 0 q 0,2.622 1.425,4.047 v 0 0 q 1.425,1.425 3.705,1.425 v 0 0 q 2.28,0 4.674,-1.368 v 0 l 1.254,15.846 v 0 q -2.508,1.938 -6.555,2.964 v 0 0 q -4.047,1.026 -8.379,1.026 z m -8.208,-66.576 v 0 q -5.358,0 -9.063,-3.363 v 0 0 q -3.705,-3.363 -3.705,-8.265 v 0 0 q 0,-4.902 3.876,-8.208 v 0 0 q 3.876,-3.306 8.892,-3.306 v 0 0 q 5.244,0 9.063,3.42 v 0 0 q 3.819,3.42 3.819,8.094 v 0 0 q 0,5.016 -3.876,8.322 v 0 0 q -3.876,3.306 -9.006,3.306 z m 49.818,66.576 v 0 q -9.69,0 -14.991,-6.099 v 0 0 q -5.301,-6.099 -5.301,-16.701 v 0 -53.238 l 24.054,-3.534 v 55.062 0 q 0,3.192 1.539,4.617 v 0 0 q 1.539,1.425 5.415,1.425 v 0 0 q 2.85,0 5.586,-1.368 v 0 l 0.798,15.96 v 0 q -7.638,3.876 -17.1,3.876 z m 52.554,0 v 0 q -9.462,0 -16.815,-3.819 v 0 0 q -7.353,-3.819 -11.457,-10.488 v 0 0 q -4.104,-6.669 -4.104,-15.105 v 0 0 q 0,-8.664 4.218,-15.39 v 0 0 q 4.218,-6.726 11.4,-10.374 v 0 0 q 7.182,-3.648 15.96,-3.648 v 0 0 q 8.436,0 14.421,3.705 v 0 0 q 5.985,3.705 8.949,10.032 v 0 0 q 2.964,6.327 2.964,14.193 v 0 0 q 0,2.052 -0.228,2.964 v 0 l -34.2,4.446 v 0 q 1.368,3.99 4.446,5.757 v 0 0 q 3.078,1.767 8.094,1.767 v 0 0 q 7.752,0 16.758,-3.99 v 0 l 2.85,15.276 v 0 q -10.602,4.674 -23.256,4.674 z m -9.804,-33.972 17.67,-3.876 v 0 q -1.824,-7.182 -8.664,-7.182 v 0 0 q -4.104,0 -6.498,3.078 v 0 0 q -2.394,3.078 -2.508,7.98 z m 43.662,33.06 v -56.316 h 24.054 v 11.628 0 q 2.622,-6.726 7.125,-9.975 v 0 0 q 4.503,-3.249 10.545,-3.249 v 0 l 3.306,18.582 v 0 q -10.83,0 -15.903,2.337 v 0 0 q -5.073,2.337 -5.073,7.353 v 0 29.64 z m 50.844,19.38 v -75.696 h 24.054 v 9.918 0 q 5.472,-11.514 18.582,-11.514 v 0 0 q 7.638,0 14.079,3.819 v 0 0 q 6.441,3.819 10.146,10.545 v 0 0 q 3.705,6.726 3.705,15.048 v 0 0 q 0,8.322 -3.819,15.048 v 0 0 q -3.819,6.726 -10.26,10.545 v 0 0 q -6.441,3.819 -13.737,3.819 v 0 0 q -12.996,0 -18.696,-11.514 v 0 25.422 z m 35.454,-36.48 v 0 q 4.674,0 7.98,-3.42 v 0 0 q 3.306,-3.42 3.306,-7.98 v 0 0 q 0,-4.788 -3.363,-8.094 v 0 0 q -3.363,-3.306 -7.923,-3.306 v 0 0 q -4.674,0 -7.98,3.249 v 0 0 q -3.306,3.249 -3.306,7.695 v 0 0.456 0 q 0,4.788 3.363,8.094 v 0 0 q 3.363,3.306 7.923,3.306 z m 63.84,18.012 v 0 q -9.69,0 -14.991,-6.099 v 0 0 q -5.301,-6.099 -5.301,-16.701 v 0 -53.238 l 24.054,-3.534 v 55.062 0 q 0,3.192 1.539,4.617 v 0 0 q 1.539,1.425 5.415,1.425 v 0 0 q 2.85,0 5.586,-1.368 v 0 l 0.798,15.96 v 0 q -7.638,3.876 -17.1,3.876 z m 48.222,0 v 0 q -7.41,0 -13.851,-3.933 v 0 0 q -6.441,-3.933 -10.317,-10.716 v 0 0 q -3.876,-6.783 -3.876,-15.105 v 0 0 q 0,-8.208 3.876,-14.877 v 0 0 q 3.876,-6.669 10.374,-10.431 v 0 0 q 6.498,-3.762 13.794,-3.762 v 0 0 q 5.928,0 11.001,3.306 v 0 0 q 5.073,3.306 7.695,9.918 v 0 -13.224 h 23.94 v 57.912 h -23.94 v -10.602 0 q -5.7,11.514 -18.696,11.514 z m 7.41,-18.012 v 0 q 4.56,0 7.809,-3.249 v 0 0 q 3.249,-3.249 3.477,-7.695 v 0 -0.912 0 q -0.228,-4.56 -3.591,-7.752 v 0 0 q -3.363,-3.192 -7.695,-3.192 v 0 0 q -4.788,0 -8.151,3.363 v 0 0 q -3.363,3.363 -3.363,8.037 v 0 0 q 0,4.788 3.42,8.094 v 0 0 q 3.42,3.306 8.094,3.306 z m 71.706,18.012 v 0 q -10.032,0 -15.618,-5.757 v 0 0 q -5.586,-5.757 -5.586,-15.903 v 0 -22.23 h -7.296 v -14.136 h 9.006 l 10.602,-21.546 h 11.514 v 21.546 h 13.224 v 14.136 h -13.224 v 19.38 0 q 0,2.85 1.824,4.446 v 0 0 q 1.824,1.596 5.13,1.596 v 0 0 q 3.078,0 5.586,-1.368 v 0 l 0.912,15.96 v 0 q -2.85,1.71 -7.353,2.793 v 0 0 q -4.503,1.083 -8.721,1.083 z m 53.01,0 v 0 q -9.462,0 -16.815,-3.819 v 0 0 q -7.353,-3.819 -11.457,-10.488 v 0 0 q -4.104,-6.669 -4.104,-15.105 v 0 0 q 0,-8.664 4.218,-15.39 v 0 0 q 4.218,-6.726 11.4,-10.374 v 0 0 q 7.182,-3.648 15.96,-3.648 v 0 0 q 8.436,0 14.421,3.705 v 0 0 q 5.985,3.705 8.949,10.032 v 0 0 q 2.964,6.327 2.964,14.193 v 0 0 q 0,2.052 -0.228,2.964 v 0 l -34.2,4.446 v 0 q 1.368,3.99 4.446,5.757 v 0 0 q 3.078,1.767 8.094,1.767 v 0 0 q 7.752,0 16.758,-3.99 v 0 l 2.85,15.276 v 0 q -10.602,4.674 -23.256,4.674 z m -9.804,-33.972 17.67,-3.876 v 0 q -1.824,-7.182 -8.664,-7.182 v 0 0 q -4.104,0 -6.498,3.078 v 0 0 q -2.394,3.078 -2.508,7.98 z M 683.083,265.473 v -78.432 h 25.65 v 31.236 h 24.282 v -31.236 h 25.764 v 78.432 h -25.764 v -30.78 h -24.282 v 30.78 z m 102.714,0 v -61.104 h -16.302 v -17.328 h 59.166 v 17.328 h -16.302 v 61.104 z m 53.58,0 v -78.432 h 23.712 l 19.608,38.076 19.152,-38.076 h 23.712 v 78.432 h -23.712 v -41.838 l -14.478,27.36 h -9.69 l -14.592,-27.36 v 41.838 z m 101.118,0 v -78.432 h 24.624 v 61.104 h 27.246 v 17.328 z"
           fill="#000000"
           stroke="none"
           id="path184" /></mask><path
         d="m 539.614,425.985 v 0 q -7.068,0 -13.11,-0.228 v 0 0 q -6.042,-0.228 -16.53,-1.026 v 0 -78.546 h 39.216 v 0 q 8.322,0 14.991,2.337 v 0 0 q 6.669,2.337 10.431,6.669 v 0 0 q 3.762,4.332 3.762,10.032 v 0 0 q 0,7.068 -3.078,11.115 v 0 0 q -3.078,4.047 -9.348,5.643 v 0 0 q 15.96,2.508 15.96,18.81 v 0 0 q 0,11.286 -10.317,18.24 v 0 0 q -10.317,6.954 -31.977,6.954 z m -4.218,-48.792 h 9.006 v 0 q 4.446,0 7.353,-2.166 v 0 0 q 2.907,-2.166 2.907,-5.586 v 0 0 q 0,-8.094 -10.032,-8.094 v 0 h -9.234 z m 8.55,30.894 v 0 q 6.27,0 9.633,-2.337 v 0 0 q 3.363,-2.337 3.363,-6.555 v 0 0 q 0,-4.56 -3.078,-7.011 v 0 0 q -3.078,-2.451 -8.778,-2.451 v 0 h -9.804 v 18.012 0 q 5.13,0.342 8.664,0.342 z m 76.494,17.442 v 0 q -9.576,0 -17.043,-3.762 v 0 0 q -7.467,-3.762 -11.628,-10.431 v 0 0 q -4.161,-6.669 -4.161,-15.333 v 0 0 q 0,-8.664 4.218,-15.333 v 0 0 q 4.218,-6.669 11.685,-10.317 v 0 0 q 7.467,-3.648 17.043,-3.648 v 0 0 q 9.69,0 17.157,3.705 v 0 0 q 7.467,3.705 11.571,10.317 v 0 0 q 4.104,6.612 4.104,15.276 v 0 0 q 0,8.778 -4.161,15.447 v 0 0 q -4.161,6.669 -11.628,10.374 v 0 0 q -7.467,3.705 -17.157,3.705 z m 0.228,-17.1 v 0 q 4.674,0 7.695,-3.477 v 0 0 q 3.021,-3.477 3.021,-8.949 v 0 0 q 0,-5.472 -3.021,-8.949 v 0 0 q -3.021,-3.477 -7.695,-3.477 v 0 0 q -4.674,0 -7.695,3.477 v 0 0 q -3.021,3.477 -3.021,8.949 v 0 0 q 0,5.472 3.021,8.949 v 0 0 q 3.021,3.477 7.695,3.477 z m 61.332,17.1 v 0 q -9.576,0 -14.934,-6.156 v 0 0 q -5.358,-6.156 -5.358,-16.758 v 0 -35.112 h 24.168 v 34.086 0 q 0,2.622 1.425,4.047 v 0 0 q 1.425,1.425 3.705,1.425 v 0 0 q 2.28,0 4.674,-1.368 v 0 l 1.254,15.846 v 0 q -2.508,1.938 -6.555,2.964 v 0 0 q -4.047,1.026 -8.379,1.026 z m -8.208,-66.576 v 0 q -5.358,0 -9.063,-3.363 v 0 0 q -3.705,-3.363 -3.705,-8.265 v 0 0 q 0,-4.902 3.876,-8.208 v 0 0 q 3.876,-3.306 8.892,-3.306 v 0 0 q 5.244,0 9.063,3.42 v 0 0 q 3.819,3.42 3.819,8.094 v 0 0 q 0,5.016 -3.876,8.322 v 0 0 q -3.876,3.306 -9.006,3.306 z m 49.818,66.576 v 0 q -9.69,0 -14.991,-6.099 v 0 0 q -5.301,-6.099 -5.301,-16.701 v 0 -53.238 l 24.054,-3.534 v 55.062 0 q 0,3.192 1.539,4.617 v 0 0 q 1.539,1.425 5.415,1.425 v 0 0 q 2.85,0 5.586,-1.368 v 0 l 0.798,15.96 v 0 q -7.638,3.876 -17.1,3.876 z m 52.554,0 v 0 q -9.462,0 -16.815,-3.819 v 0 0 q -7.353,-3.819 -11.457,-10.488 v 0 0 q -4.104,-6.669 -4.104,-15.105 v 0 0 q 0,-8.664 4.218,-15.39 v 0 0 q 4.218,-6.726 11.4,-10.374 v 0 0 q 7.182,-3.648 15.96,-3.648 v 0 0 q 8.436,0 14.421,3.705 v 0 0 q 5.985,3.705 8.949,10.032 v 0 0 q 2.964,6.327 2.964,14.193 v 0 0 q 0,2.052 -0.228,2.964 v 0 l -34.2,4.446 v 0 q 1.368,3.99 4.446,5.757 v 0 0 q 3.078,1.767 8.094,1.767 v 0 0 q 7.752,0 16.758,-3.99 v 0 l 2.85,15.276 v 0 q -10.602,4.674 -23.256,4.674 z m -9.804,-33.972 17.67,-3.876 v 0 q -1.824,-7.182 -8.664,-7.182 v 0 0 q -4.104,0 -6.498,3.078 v 0 0 q -2.394,3.078 -2.508,7.98 z m 43.662,33.06 v -56.316 h 24.054 v 11.628 0 q 2.622,-6.726 7.125,-9.975 v 0 0 q 4.503,-3.249 10.545,-3.249 v 0 l 3.306,18.582 v 0 q -10.83,0 -15.903,2.337 v 0 0 q -5.073,2.337 -5.073,7.353 v 0 29.64 z m 50.844,19.38 v -75.696 h 24.054 v 9.918 0 q 5.472,-11.514 18.582,-11.514 v 0 0 q 7.638,0 14.079,3.819 v 0 0 q 6.441,3.819 10.146,10.545 v 0 0 q 3.705,6.726 3.705,15.048 v 0 0 q 0,8.322 -3.819,15.048 v 0 0 q -3.819,6.726 -10.26,10.545 v 0 0 q -6.441,3.819 -13.737,3.819 v 0 0 q -12.996,0 -18.696,-11.514 v 0 25.422 z m 35.454,-36.48 v 0 q 4.674,0 7.98,-3.42 v 0 0 q 3.306,-3.42 3.306,-7.98 v 0 0 q 0,-4.788 -3.363,-8.094 v 0 0 q -3.363,-3.306 -7.923,-3.306 v 0 0 q -4.674,0 -7.98,3.249 v 0 0 q -3.306,3.249 -3.306,7.695 v 0 0.456 0 q 0,4.788 3.363,8.094 v 0 0 q 3.363,3.306 7.923,3.306 z m 63.84,18.012 v 0 q -9.69,0 -14.991,-6.099 v 0 0 q -5.301,-6.099 -5.301,-16.701 v 0 -53.238 l 24.054,-3.534 v 55.062 0 q 0,3.192 1.539,4.617 v 0 0 q 1.539,1.425 5.415,1.425 v 0 0 q 2.85,0 5.586,-1.368 v 0 l 0.798,15.96 v 0 q -7.638,3.876 -17.1,3.876 z m 48.222,0 v 0 q -7.41,0 -13.851,-3.933 v 0 0 q -6.441,-3.933 -10.317,-10.716 v 0 0 q -3.876,-6.783 -3.876,-15.105 v 0 0 q 0,-8.208 3.876,-14.877 v 0 0 q 3.876,-6.669 10.374,-10.431 v 0 0 q 6.498,-3.762 13.794,-3.762 v 0 0 q 5.928,0 11.001,3.306 v 0 0 q 5.073,3.306 7.695,9.918 v 0 -13.224 h 23.94 v 57.912 h -23.94 v -10.602 0 q -5.7,11.514 -18.696,11.514 z m 7.41,-18.012 v 0 q 4.56,0 7.809,-3.249 v 0 0 q 3.249,-3.249 3.477,-7.695 v 0 -0.912 0 q -0.228,-4.56 -3.591,-7.752 v 0 0 q -3.363,-3.192 -7.695,-3.192 v 0 0 q -4.788,0 -8.151,3.363 v 0 0 q -3.363,3.363 -3.363,8.037 v 0 0 q 0,4.788 3.42,8.094 v 0 0 q 3.42,3.306 8.094,3.306 z m 71.706,18.012 v 0 q -10.032,0 -15.618,-5.757 v 0 0 q -5.586,-5.757 -5.586,-15.903 v 0 -22.23 h -7.296 v -14.136 h 9.006 l 10.602,-21.546 h 11.514 v 21.546 h 13.224 v 14.136 h -13.224 v 19.38 0 q 0,2.85 1.824,4.446 v 0 0 q 1.824,1.596 5.13,1.596 v 0 0 q 3.078,0 5.586,-1.368 v 0 l 0.912,15.96 v 0 q -2.85,1.71 -7.353,2.793 v 0 0 q -4.503,1.083 -8.721,1.083 z m 53.01,0 v 0 q -9.462,0 -16.815,-3.819 v 0 0 q -7.353,-3.819 -11.457,-10.488 v 0 0 q -4.104,-6.669 -4.104,-15.105 v 0 0 q 0,-8.664 4.218,-15.39 v 0 0 q 4.218,-6.726 11.4,-10.374 v 0 0 q 7.182,-3.648 15.96,-3.648 v 0 0 q 8.436,0 14.421,3.705 v 0 0 q 5.985,3.705 8.949,10.032 v 0 0 q 2.964,6.327 2.964,14.193 v 0 0 q 0,2.052 -0.228,2.964 v 0 l -34.2,4.446 v 0 q 1.368,3.99 4.446,5.757 v 0 0 q 3.078,1.767 8.094,1.767 v 0 0 q 7.752,0 16.758,-3.99 v 0 l 2.85,15.276 v 0 q -10.602,4.674 -23.256,4.674 z m -9.804,-33.972 17.67,-3.876 v 0 q -1.824,-7.182 -8.664,-7.182 v 0 0 q -4.104,0 -6.498,3.078 v 0 0 q -2.394,3.078 -2.508,7.98 z M 683.083,265.473 v -78.432 h 25.65 v 31.236 h 24.282 v -31.236 h 25.764 v 78.432 h -25.764 v -30.78 h -24.282 v 30.78 z m 102.714,0 v -61.104 h -16.302 v -17.328 h 59.166 v 17.328 h -16.302 v 61.104 z m 53.58,0 v -78.432 h 23.712 l 19.608,38.076 19.152,-38.076 h 23.712 v 78.432 h -23.712 v -41.838 l -14.478,27.36 h -9.69 l -14.592,-27.36 v 41.838 z m 101.118,0 v -78.432 h 24.624 v 61.104 h 27.246 v 17.328 z"
         fill="none"
         mask="url(#_mask_BSaTmp5wCI2DhKH7W01ycwOqyNd97YaI)"
         vector-effect="non-scaling-stroke"
         stroke-width="6"
         stroke="#fdae55"
         stroke-linejoin="miter"
         stroke-linecap="square"
         stroke-miterlimit="3"
         id="path187" /><mask
         id="_mask_9mPwZzMmyrqUQOHvzhwCWlohaq3aYNPz"
         x="-200%"
         y="-200%"
         width="400%"
         height="400%"><rect
           x="-200%"
           y="-200%"
           width="400%"
           height="400%"
           style="fill:#ffffff"
           id="rect189" /><path
           d="m 539.614,425.985 v 0 q -7.068,0 -13.11,-0.228 v 0 0 q -6.042,-0.228 -16.53,-1.026 v 0 -78.546 h 39.216 v 0 q 8.322,0 14.991,2.337 v 0 0 q 6.669,2.337 10.431,6.669 v 0 0 q 3.762,4.332 3.762,10.032 v 0 0 q 0,7.068 -3.078,11.115 v 0 0 q -3.078,4.047 -9.348,5.643 v 0 0 q 15.96,2.508 15.96,18.81 v 0 0 q 0,11.286 -10.317,18.24 v 0 0 q -10.317,6.954 -31.977,6.954 z m -4.218,-48.792 h 9.006 v 0 q 4.446,0 7.353,-2.166 v 0 0 q 2.907,-2.166 2.907,-5.586 v 0 0 q 0,-8.094 -10.032,-8.094 v 0 h -9.234 z m 8.55,30.894 v 0 q 6.27,0 9.633,-2.337 v 0 0 q 3.363,-2.337 3.363,-6.555 v 0 0 q 0,-4.56 -3.078,-7.011 v 0 0 q -3.078,-2.451 -8.778,-2.451 v 0 h -9.804 v 18.012 0 q 5.13,0.342 8.664,0.342 z m 76.494,17.442 v 0 q -9.576,0 -17.043,-3.762 v 0 0 q -7.467,-3.762 -11.628,-10.431 v 0 0 q -4.161,-6.669 -4.161,-15.333 v 0 0 q 0,-8.664 4.218,-15.333 v 0 0 q 4.218,-6.669 11.685,-10.317 v 0 0 q 7.467,-3.648 17.043,-3.648 v 0 0 q 9.69,0 17.157,3.705 v 0 0 q 7.467,3.705 11.571,10.317 v 0 0 q 4.104,6.612 4.104,15.276 v 0 0 q 0,8.778 -4.161,15.447 v 0 0 q -4.161,6.669 -11.628,10.374 v 0 0 q -7.467,3.705 -17.157,3.705 z m 0.228,-17.1 v 0 q 4.674,0 7.695,-3.477 v 0 0 q 3.021,-3.477 3.021,-8.949 v 0 0 q 0,-5.472 -3.021,-8.949 v 0 0 q -3.021,-3.477 -7.695,-3.477 v 0 0 q -4.674,0 -7.695,3.477 v 0 0 q -3.021,3.477 -3.021,8.949 v 0 0 q 0,5.472 3.021,8.949 v 0 0 q 3.021,3.477 7.695,3.477 z m 61.332,17.1 v 0 q -9.576,0 -14.934,-6.156 v 0 0 q -5.358,-6.156 -5.358,-16.758 v 0 -35.112 h 24.168 v 34.086 0 q 0,2.622 1.425,4.047 v 0 0 q 1.425,1.425 3.705,1.425 v 0 0 q 2.28,0 4.674,-1.368 v 0 l 1.254,15.846 v 0 q -2.508,1.938 -6.555,2.964 v 0 0 q -4.047,1.026 -8.379,1.026 z m -8.208,-66.576 v 0 q -5.358,0 -9.063,-3.363 v 0 0 q -3.705,-3.363 -3.705,-8.265 v 0 0 q 0,-4.902 3.876,-8.208 v 0 0 q 3.876,-3.306 8.892,-3.306 v 0 0 q 5.244,0 9.063,3.42 v 0 0 q 3.819,3.42 3.819,8.094 v 0 0 q 0,5.016 -3.876,8.322 v 0 0 q -3.876,3.306 -9.006,3.306 z m 49.818,66.576 v 0 q -9.69,0 -14.991,-6.099 v 0 0 q -5.301,-6.099 -5.301,-16.701 v 0 -53.238 l 24.054,-3.534 v 55.062 0 q 0,3.192 1.539,4.617 v 0 0 q 1.539,1.425 5.415,1.425 v 0 0 q 2.85,0 5.586,-1.368 v 0 l 0.798,15.96 v 0 q -7.638,3.876 -17.1,3.876 z m 52.554,0 v 0 q -9.462,0 -16.815,-3.819 v 0 0 q -7.353,-3.819 -11.457,-10.488 v 0 0 q -4.104,-6.669 -4.104,-15.105 v 0 0 q 0,-8.664 4.218,-15.39 v 0 0 q 4.218,-6.726 11.4,-10.374 v 0 0 q 7.182,-3.648 15.96,-3.648 v 0 0 q 8.436,0 14.421,3.705 v 0 0 q 5.985,3.705 8.949,10.032 v 0 0 q 2.964,6.327 2.964,14.193 v 0 0 q 0,2.052 -0.228,2.964 v 0 l -34.2,4.446 v 0 q 1.368,3.99 4.446,5.757 v 0 0 q 3.078,1.767 8.094,1.767 v 0 0 q 7.752,0 16.758,-3.99 v 0 l 2.85,15.276 v 0 q -10.602,4.674 -23.256,4.674 z m -9.804,-33.972 17.67,-3.876 v 0 q -1.824,-7.182 -8.664,-7.182 v 0 0 q -4.104,0 -6.498,3.078 v 0 0 q -2.394,3.078 -2.508,7.98 z m 43.662,33.06 v -56.316 h 24.054 v 11.628 0 q 2.622,-6.726 7.125,-9.975 v 0 0 q 4.503,-3.249 10.545,-3.249 v 0 l 3.306,18.582 v 0 q -10.83,0 -15.903,2.337 v 0 0 q -5.073,2.337 -5.073,7.353 v 0 29.64 z m 50.844,19.38 v -75.696 h 24.054 v 9.918 0 q 5.472,-11.514 18.582,-11.514 v 0 0 q 7.638,0 14.079,3.819 v 0 0 q 6.441,3.819 10.146,10.545 v 0 0 q 3.705,6.726 3.705,15.048 v 0 0 q 0,8.322 -3.819,15.048 v 0 0 q -3.819,6.726 -10.26,10.545 v 0 0 q -6.441,3.819 -13.737,3.819 v 0 0 q -12.996,0 -18.696,-11.514 v 0 25.422 z m 35.454,-36.48 v 0 q 4.674,0 7.98,-3.42 v 0 0 q 3.306,-3.42 3.306,-7.98 v 0 0 q 0,-4.788 -3.363,-8.094 v 0 0 q -3.363,-3.306 -7.923,-3.306 v 0 0 q -4.674,0 -7.98,3.249 v 0 0 q -3.306,3.249 -3.306,7.695 v 0 0.456 0 q 0,4.788 3.363,8.094 v 0 0 q 3.363,3.306 7.923,3.306 z m 63.84,18.012 v 0 q -9.69,0 -14.991,-6.099 v 0 0 q -5.301,-6.099 -5.301,-16.701 v 0 -53.238 l 24.054,-3.534 v 55.062 0 q 0,3.192 1.539,4.617 v 0 0 q 1.539,1.425 5.415,1.425 v 0 0 q 2.85,0 5.586,-1.368 v 0 l 0.798,15.96 v 0 q -7.638,3.876 -17.1,3.876 z m 48.222,0 v 0 q -7.41,0 -13.851,-3.933 v 0 0 q -6.441,-3.933 -10.317,-10.716 v 0 0 q -3.876,-6.783 -3.876,-15.105 v 0 0 q 0,-8.208 3.876,-14.877 v 0 0 q 3.876,-6.669 10.374,-10.431 v 0 0 q 6.498,-3.762 13.794,-3.762 v 0 0 q 5.928,0 11.001,3.306 v 0 0 q 5.073,3.306 7.695,9.918 v 0 -13.224 h 23.94 v 57.912 h -23.94 v -10.602 0 q -5.7,11.514 -18.696,11.514 z m 7.41,-18.012 v 0 q 4.56,0 7.809,-3.249 v 0 0 q 3.249,-3.249 3.477,-7.695 v 0 -0.912 0 q -0.228,-4.56 -3.591,-7.752 v 0 0 q -3.363,-3.192 -7.695,-3.192 v 0 0 q -4.788,0 -8.151,3.363 v 0 0 q -3.363,3.363 -3.363,8.037 v 0 0 q 0,4.788 3.42,8.094 v 0 0 q 3.42,3.306 8.094,3.306 z m 71.706,18.012 v 0 q -10.032,0 -15.618,-5.757 v 0 0 q -5.586,-5.757 -5.586,-15.903 v 0 -22.23 h -7.296 v -14.136 h 9.006 l 10.602,-21.546 h 11.514 v 21.546 h 13.224 v 14.136 h -13.224 v 19.38 0 q 0,2.85 1.824,4.446 v 0 0 q 1.824,1.596 5.13,1.596 v 0 0 q 3.078,0 5.586,-1.368 v 0 l 0.912,15.96 v 0 q -2.85,1.71 -7.353,2.793 v 0 0 q -4.503,1.083 -8.721,1.083 z m 53.01,0 v 0 q -9.462,0 -16.815,-3.819 v 0 0 q -7.353,-3.819 -11.457,-10.488 v 0 0 q -4.104,-6.669 -4.104,-15.105 v 0 0 q 0,-8.664 4.218,-15.39 v 0 0 q 4.218,-6.726 11.4,-10.374 v 0 0 q 7.182,-3.648 15.96,-3.648 v 0 0 q 8.436,0 14.421,3.705 v 0 0 q 5.985,3.705 8.949,10.032 v 0 0 q 2.964,6.327 2.964,14.193 v 0 0 q 0,2.052 -0.228,2.964 v 0 l -34.2,4.446 v 0 q 1.368,3.99 4.446,5.757 v 0 0 q 3.078,1.767 8.094,1.767 v 0 0 q 7.752,0 16.758,-3.99 v 0 l 2.85,15.276 v 0 q -10.602,4.674 -23.256,4.674 z m -9.804,-33.972 17.67,-3.876 v 0 q -1.824,-7.182 -8.664,-7.182 v 0 0 q -4.104,0 -6.498,3.078 v 0 0 q -2.394,3.078 -2.508,7.98 z M 683.083,265.473 v -78.432 h 25.65 v 31.236 h 24.282 v -31.236 h 25.764 v 78.432 h -25.764 v -30.78 h -24.282 v 30.78 z m 102.714,0 v -61.104 h -16.302 v -17.328 h 59.166 v 17.328 h -16.302 v 61.104 z m 53.58,0 v -78.432 h 23.712 l 19.608,38.076 19.152,-38.076 h 23.712 v 78.432 h -23.712 v -41.838 l -14.478,27.36 h -9.69 l -14.592,-27.36 v 41.838 z m 101.118,0 v -78.432 h 24.624 v 61.104 h 27.246 v 17.328 z"
           fill="#000000"
           stroke="none"
           id="path191" /></mask><path
         d="m 539.614,425.985 v 0 q -7.068,0 -13.11,-0.228 v 0 0 q -6.042,-0.228 -16.53,-1.026 v 0 -78.546 h 39.216 v 0 q 8.322,0 14.991,2.337 v 0 0 q 6.669,2.337 10.431,6.669 v 0 0 q 3.762,4.332 3.762,10.032 v 0 0 q 0,7.068 -3.078,11.115 v 0 0 q -3.078,4.047 -9.348,5.643 v 0 0 q 15.96,2.508 15.96,18.81 v 0 0 q 0,11.286 -10.317,18.24 v 0 0 q -10.317,6.954 -31.977,6.954 z m -4.218,-48.792 h 9.006 v 0 q 4.446,0 7.353,-2.166 v 0 0 q 2.907,-2.166 2.907,-5.586 v 0 0 q 0,-8.094 -10.032,-8.094 v 0 h -9.234 z m 8.55,30.894 v 0 q 6.27,0 9.633,-2.337 v 0 0 q 3.363,-2.337 3.363,-6.555 v 0 0 q 0,-4.56 -3.078,-7.011 v 0 0 q -3.078,-2.451 -8.778,-2.451 v 0 h -9.804 v 18.012 0 q 5.13,0.342 8.664,0.342 z m 76.494,17.442 v 0 q -9.576,0 -17.043,-3.762 v 0 0 q -7.467,-3.762 -11.628,-10.431 v 0 0 q -4.161,-6.669 -4.161,-15.333 v 0 0 q 0,-8.664 4.218,-15.333 v 0 0 q 4.218,-6.669 11.685,-10.317 v 0 0 q 7.467,-3.648 17.043,-3.648 v 0 0 q 9.69,0 17.157,3.705 v 0 0 q 7.467,3.705 11.571,10.317 v 0 0 q 4.104,6.612 4.104,15.276 v 0 0 q 0,8.778 -4.161,15.447 v 0 0 q -4.161,6.669 -11.628,10.374 v 0 0 q -7.467,3.705 -17.157,3.705 z m 0.228,-17.1 v 0 q 4.674,0 7.695,-3.477 v 0 0 q 3.021,-3.477 3.021,-8.949 v 0 0 q 0,-5.472 -3.021,-8.949 v 0 0 q -3.021,-3.477 -7.695,-3.477 v 0 0 q -4.674,0 -7.695,3.477 v 0 0 q -3.021,3.477 -3.021,8.949 v 0 0 q 0,5.472 3.021,8.949 v 0 0 q 3.021,3.477 7.695,3.477 z m 61.332,17.1 v 0 q -9.576,0 -14.934,-6.156 v 0 0 q -5.358,-6.156 -5.358,-16.758 v 0 -35.112 h 24.168 v 34.086 0 q 0,2.622 1.425,4.047 v 0 0 q 1.425,1.425 3.705,1.425 v 0 0 q 2.28,0 4.674,-1.368 v 0 l 1.254,15.846 v 0 q -2.508,1.938 -6.555,2.964 v 0 0 q -4.047,1.026 -8.379,1.026 z m -8.208,-66.576 v 0 q -5.358,0 -9.063,-3.363 v 0 0 q -3.705,-3.363 -3.705,-8.265 v 0 0 q 0,-4.902 3.876,-8.208 v 0 0 q 3.876,-3.306 8.892,-3.306 v 0 0 q 5.244,0 9.063,3.42 v 0 0 q 3.819,3.42 3.819,8.094 v 0 0 q 0,5.016 -3.876,8.322 v 0 0 q -3.876,3.306 -9.006,3.306 z m 49.818,66.576 v 0 q -9.69,0 -14.991,-6.099 v 0 0 q -5.301,-6.099 -5.301,-16.701 v 0 -53.238 l 24.054,-3.534 v 55.062 0 q 0,3.192 1.539,4.617 v 0 0 q 1.539,1.425 5.415,1.425 v 0 0 q 2.85,0 5.586,-1.368 v 0 l 0.798,15.96 v 0 q -7.638,3.876 -17.1,3.876 z m 52.554,0 v 0 q -9.462,0 -16.815,-3.819 v 0 0 q -7.353,-3.819 -11.457,-10.488 v 0 0 q -4.104,-6.669 -4.104,-15.105 v 0 0 q 0,-8.664 4.218,-15.39 v 0 0 q 4.218,-6.726 11.4,-10.374 v 0 0 q 7.182,-3.648 15.96,-3.648 v 0 0 q 8.436,0 14.421,3.705 v 0 0 q 5.985,3.705 8.949,10.032 v 0 0 q 2.964,6.327 2.964,14.193 v 0 0 q 0,2.052 -0.228,2.964 v 0 l -34.2,4.446 v 0 q 1.368,3.99 4.446,5.757 v 0 0 q 3.078,1.767 8.094,1.767 v 0 0 q 7.752,0 16.758,-3.99 v 0 l 2.85,15.276 v 0 q -10.602,4.674 -23.256,4.674 z m -9.804,-33.972 17.67,-3.876 v 0 q -1.824,-7.182 -8.664,-7.182 v 0 0 q -4.104,0 -6.498,3.078 v 0 0 q -2.394,3.078 -2.508,7.98 z m 43.662,33.06 v -56.316 h 24.054 v 11.628 0 q 2.622,-6.726 7.125,-9.975 v 0 0 q 4.503,-3.249 10.545,-3.249 v 0 l 3.306,18.582 v 0 q -10.83,0 -15.903,2.337 v 0 0 q -5.073,2.337 -5.073,7.353 v 0 29.64 z m 50.844,19.38 v -75.696 h 24.054 v 9.918 0 q 5.472,-11.514 18.582,-11.514 v 0 0 q 7.638,0 14.079,3.819 v 0 0 q 6.441,3.819 10.146,10.545 v 0 0 q 3.705,6.726 3.705,15.048 v 0 0 q 0,8.322 -3.819,15.048 v 0 0 q -3.819,6.726 -10.26,10.545 v 0 0 q -6.441,3.819 -13.737,3.819 v 0 0 q -12.996,0 -18.696,-11.514 v 0 25.422 z m 35.454,-36.48 v 0 q 4.674,0 7.98,-3.42 v 0 0 q 3.306,-3.42 3.306,-7.98 v 0 0 q 0,-4.788 -3.363,-8.094 v 0 0 q -3.363,-3.306 -7.923,-3.306 v 0 0 q -4.674,0 -7.98,3.249 v 0 0 q -3.306,3.249 -3.306,7.695 v 0 0.456 0 q 0,4.788 3.363,8.094 v 0 0 q 3.363,3.306 7.923,3.306 z m 63.84,18.012 v 0 q -9.69,0 -14.991,-6.099 v 0 0 q -5.301,-6.099 -5.301,-16.701 v 0 -53.238 l 24.054,-3.534 v 55.062 0 q 0,3.192 1.539,4.617 v 0 0 q 1.539,1.425 5.415,1.425 v 0 0 q 2.85,0 5.586,-1.368 v 0 l 0.798,15.96 v 0 q -7.638,3.876 -17.1,3.876 z m 48.222,0 v 0 q -7.41,0 -13.851,-3.933 v 0 0 q -6.441,-3.933 -10.317,-10.716 v 0 0 q -3.876,-6.783 -3.876,-15.105 v 0 0 q 0,-8.208 3.876,-14.877 v 0 0 q 3.876,-6.669 10.374,-10.431 v 0 0 q 6.498,-3.762 13.794,-3.762 v 0 0 q 5.928,0 11.001,3.306 v 0 0 q 5.073,3.306 7.695,9.918 v 0 -13.224 h 23.94 v 57.912 h -23.94 v -10.602 0 q -5.7,11.514 -18.696,11.514 z m 7.41,-18.012 v 0 q 4.56,0 7.809,-3.249 v 0 0 q 3.249,-3.249 3.477,-7.695 v 0 -0.912 0 q -0.228,-4.56 -3.591,-7.752 v 0 0 q -3.363,-3.192 -7.695,-3.192 v 0 0 q -4.788,0 -8.151,3.363 v 0 0 q -3.363,3.363 -3.363,8.037 v 0 0 q 0,4.788 3.42,8.094 v 0 0 q 3.42,3.306 8.094,3.306 z m 71.706,18.012 v 0 q -10.032,0 -15.618,-5.757 v 0 0 q -5.586,-5.757 -5.586,-15.903 v 0 -22.23 h -7.296 v -14.136 h 9.006 l 10.602,-21.546 h 11.514 v 21.546 h 13.224 v 14.136 h -13.224 v 19.38 0 q 0,2.85 1.824,4.446 v 0 0 q 1.824,1.596 5.13,1.596 v 0 0 q 3.078,0 5.586,-1.368 v 0 l 0.912,15.96 v 0 q -2.85,1.71 -7.353,2.793 v 0 0 q -4.503,1.083 -8.721,1.083 z m 53.01,0 v 0 q -9.462,0 -16.815,-3.819 v 0 0 q -7.353,-3.819 -11.457,-10.488 v 0 0 q -4.104,-6.669 -4.104,-15.105 v 0 0 q 0,-8.664 4.218,-15.39 v 0 0 q 4.218,-6.726 11.4,-10.374 v 0 0 q 7.182,-3.648 15.96,-3.648 v 0 0 q 8.436,0 14.421,3.705 v 0 0 q 5.985,3.705 8.949,10.032 v 0 0 q 2.964,6.327 2.964,14.193 v 0 0 q 0,2.052 -0.228,2.964 v 0 l -34.2,4.446 v 0 q 1.368,3.99 4.446,5.757 v 0 0 q 3.078,1.767 8.094,1.767 v 0 0 q 7.752,0 16.758,-3.99 v 0 l 2.85,15.276 v 0 q -10.602,4.674 -23.256,4.674 z m -9.804,-33.972 17.67,-3.876 v 0 q -1.824,-7.182 -8.664,-7.182 v 0 0 q -4.104,0 -6.498,3.078 v 0 0 q -2.394,3.078 -2.508,7.98 z M 683.083,265.473 v -78.432 h 25.65 v 31.236 h 24.282 v -31.236 h 25.764 v 78.432 h -25.764 v -30.78 h -24.282 v 30.78 z m 102.714,0 v -61.104 h -16.302 v -17.328 h 59.166 v 17.328 h -16.302 v 61.104 z m 53.58,0 v -78.432 h 23.712 l 19.608,38.076 19.152,-38.076 h 23.712 v 78.432 h -23.712 v -41.838 l -14.478,27.36 h -9.69 l -14.592,-27.36 v 41.838 z m 101.118,0 v -78.432 h 24.624 v 61.104 h 27.246 v 17.328 z"
         fill="none"
         mask="url(#_mask_9mPwZzMmyrqUQOHvzhwCWlohaq3aYNPz)"
         vector-effect="non-scaling-stroke"
         stroke-width="2"
         stroke="#f19142"
         stroke-linejoin="miter"
         stroke-linecap="square"
         stroke-miterlimit="3"
         id="path194" /></g></g></svg>
